<svg xmlns="http://www.w3.org/2000/svg" width="344.713" height="71.25" viewBox="0 0 344.713 71.25">
  <g id="Group_559" data-name="Group 559" transform="translate(-52.667 -183)">
    <path id="Subtraction_1" data-name="Subtraction 1" d="M12.861,70.571H0V36.19C0,24.6,3.044,15.613,9.047,9.469,15.188,3.186,24.32,0,36.19,0H70.571V12.984l-33.94-.317c-15,0-23.6,8.687-23.6,23.833l-.174,34.07Z" transform="translate(52.667 183.679)" fill="#0e6057"/>
    <rect id="Rectangle_6" data-name="Rectangle 6" width="36.643" height="12.214" transform="translate(74.381 212.178)" fill="#0e6057"/>
    <rect id="Rectangle_7" data-name="Rectangle 7" width="14.929" height="70.571" transform="translate(134.095 183.679)" fill="#0e6057"/>
    <g id="surface1" transform="translate(161.211 183)">
      <path id="Path_1" data-name="Path 1" d="M20.772,19.846a1.26,1.26,0,0,1,.583.33L39.324,38.146l3.251-3.251L24.606,16.926a1.261,1.261,0,0,1-.331-.585l-1.131-4.508-7.5-4.286-3.671,3.671,4.287,7.5Zm0,0" transform="translate(-11.497 -7.235)" fill="#0e6057"/>
      <path id="Path_2" data-name="Path 2" d="M25.627,53.6,54.141,25.085a1.258,1.258,0,0,1,1.194-.331,12.507,12.507,0,0,0,15.61-12.181c0-.236-.007-.474-.022-.714l-6.632,6.631a1.257,1.257,0,0,1-1.286.3L55.461,16.28a1.255,1.255,0,0,1-.8-.794L52.152,7.943a1.255,1.255,0,0,1,.3-1.286L59.087.025a12.51,12.51,0,0,0-12.9,15.589,1.257,1.257,0,0,1-.33,1.195L17.348,45.32a1.269,1.269,0,0,1-1.194.331,12.386,12.386,0,0,0-3.039-.391A12.656,12.656,0,1,0,25.3,54.793,1.259,1.259,0,0,1,25.627,53.6ZM16.175,62.86H10.056L7.038,57.832l3.018-5.03h6.119l3.017,5.03Zm4.852-14.718L48.684,20.485l1.777,1.778L22.8,49.92Zm0,0" transform="translate(-0.375 -0.001)" fill="#0e6057"/>
      <path id="Path_3" data-name="Path 3" d="M1459.5,1464.958a7.624,7.624,0,0,0,9.818-9.819Zm0,0" transform="translate(-1399.238 -1395.043)" fill="#0e6057"/>
      <path id="Path_4" data-name="Path 4" d="M901.828,886.6l-14.12-14.126a3.923,3.923,0,0,1-5.531-5.524l-2-2-10.794,10.794,2.012,2.011a3.923,3.923,0,0,1,5.531,5.524l14.108,14.116c.154.154.316.3.481.435l10.749-10.749C902.125,886.916,901.982,886.754,901.828,886.6Zm-7.454,5.117L881.8,879.146l1.777-1.778,12.572,12.572Zm0,0" transform="translate(-833.493 -829.227)" fill="#0e6057"/>
    </g>
    <g id="Group_2" data-name="Group 2" transform="translate(242.669 183.679)">
      <path id="Subtraction_3" data-name="Subtraction 3" d="M71.927,70.572H35.285a35.295,35.295,0,0,1-13.735-67.8A35.068,35.068,0,0,1,35.285,0H71.927V12.667H37a22.619,22.619,0,1,0,0,45.239H71.927V70.571Z" transform="translate(0 0)" fill="#0e6057"/>
      <rect id="Rectangle_11" data-name="Rectangle 11" width="36.643" height="12.214" transform="translate(36.64 28.5)" fill="#0e6057"/>
    </g>
    <g id="Group_1" data-name="Group 1" transform="translate(326.809 183.679)">
      <path id="Subtraction_5" data-name="Subtraction 5" d="M66.044,39.81H51.819l.238-4.541A23.612,23.612,0,0,0,46.5,19.057a21.017,21.017,0,0,0-15.009-7.77L0,10.784A35.288,35.288,0,0,1,25.434,0h5.5A35.355,35.355,0,0,1,66.319,35.386a35.806,35.806,0,0,1-.275,4.423Z" transform="translate(0.181 30.084)" fill="#0e6057"/>
      <path id="Subtraction_7" data-name="Subtraction 7" d="M49.536,42.071H0V30.051H48.889a9.015,9.015,0,1,0,0-18.03H0V0H49.536A21.035,21.035,0,0,1,64.41,35.91,20.9,20.9,0,0,1,49.536,42.071Z" transform="translate(0 0)" fill="#0e6057"/>
    </g>
  </g>
</svg>
