<svg xmlns="http://www.w3.org/2000/svg" viewBox="0 0 7 9" width="7" height="9">
	<defs>
		<clipPath clipPathUnits="userSpaceOnUse" id="cp1">
			<path d="M-132 -95L1788 -95L1788 985L-132 985Z" />
		</clipPath>
	</defs>
	<style>
		tspan { white-space:pre }
		.shp0 { fill: #ffffff } 
	</style>
	<g id="Страница Баннеры" clip-path="url(#cp1)">
		<g id="location">
			<path id="Контур 413" fill-rule="evenodd" class="shp0" d="M6.76 2.97C6.76 3.42 6.66 3.85 6.48 4.25C6.47 4.26 6.47 4.27 6.46 4.28L4.29 8.62C4.21 8.78 4.05 8.88 3.88 8.88C3.7 8.88 3.54 8.78 3.46 8.62L1.29 4.27C1.29 4.27 1.28 4.26 1.28 4.25C1.09 3.85 1 3.42 1 2.97C1 1.33 2.29 0 3.88 0C5.46 0 6.76 1.33 6.76 2.97ZM5.38 2.97C5.38 2.11 4.71 1.42 3.88 1.42C3.05 1.42 2.37 2.11 2.37 2.97C2.37 3.83 3.05 4.53 3.88 4.53C4.71 4.53 5.38 3.83 5.38 2.97Z" />
		</g>
	</g>
</svg>