<svg xmlns="http://www.w3.org/2000/svg" viewBox="0 0 11 10" width="11" height="10">
	<defs>
		<clipPath clipPathUnits="userSpaceOnUse" id="cp1">
			<path d="M-471 -95L1449 -95L1449 985L-471 985Z" />
		</clipPath>
	</defs>
	<style>
		tspan { white-space:pre }
		.shp0 { fill: #ffffff } 
	</style>
	<g id="Страница товаров незаполненная (исходная) – 1" clip-path="url(#cp1)">
		<g id="sale">
			<g id="Сгруппировать 325">
				<g id="Сгруппировать 324">
					<path id="Контур 422" fill-rule="evenodd" class="shp0" d="M10.12 5.89C10.32 6.32 10.16 6.82 9.74 7.05L8.99 7.44C8.91 7.49 8.85 7.56 8.84 7.65L8.69 8.49C8.61 8.96 8.18 9.27 7.71 9.2L6.87 9.08C6.78 9.07 6.69 9.1 6.62 9.16L6.01 9.75C5.84 9.92 5.63 10 5.41 10C5.19 10 4.97 9.92 4.8 9.75L4.19 9.16C4.13 9.1 4.04 9.07 3.95 9.08L3.1 9.2C3.06 9.21 3.02 9.21 2.98 9.21C2.56 9.21 2.2 8.91 2.12 8.49L1.98 7.65C1.96 7.56 1.91 7.49 1.82 7.44L1.07 7.05C0.66 6.82 0.49 6.32 0.7 5.89L1.07 5.13C1.11 5.05 1.11 4.95 1.07 4.87L0.7 4.11C0.49 3.68 0.66 3.18 1.07 2.95L1.82 2.56C1.91 2.51 1.96 2.44 1.98 2.35L2.12 1.51C2.2 1.04 2.64 0.73 3.1 0.8L3.95 0.92C4.04 0.93 4.13 0.9 4.19 0.84L4.8 0.25C5.14 -0.08 5.67 -0.08 6.01 0.25L6.62 0.84C6.69 0.9 6.78 0.93 6.87 0.92L7.71 0.8C8.18 0.73 8.61 1.04 8.69 1.51L8.84 2.35C8.85 2.44 8.91 2.51 8.99 2.56L9.74 2.95C10.16 3.18 10.32 3.68 10.12 4.11L9.74 4.87C9.7 4.95 9.7 5.05 9.74 5.13L10.12 5.89ZM3.2 3.46C3.2 4.04 3.67 4.52 4.25 4.52C4.84 4.52 5.31 4.04 5.31 3.46C5.31 2.88 4.84 2.4 4.25 2.4C3.67 2.4 3.2 2.88 3.2 3.46ZM7.51 3.3C7.63 3.19 7.63 3.01 7.51 2.89C7.4 2.78 7.22 2.78 7.11 2.89L3.3 6.7C3.19 6.81 3.19 6.99 3.3 7.11C3.36 7.16 3.43 7.19 3.5 7.19C3.58 7.19 3.65 7.16 3.71 7.11L7.51 3.3ZM7.62 6.54C7.62 5.95 7.14 5.48 6.56 5.48C5.98 5.48 5.5 5.95 5.5 6.54C5.5 7.12 5.98 7.6 6.56 7.6C7.14 7.6 7.62 7.12 7.62 6.54Z" />
				</g>
			</g>
		</g>
	</g>
</svg>