<svg xmlns="http://www.w3.org/2000/svg" width="12.344" height="13.85" viewBox="0 0 12.344 13.85">
  <g id="document-sheets" transform="translate(-36.365 -9.569)">
    <path id="Path_486" data-name="Path 486" d="M102.319,12.75V10.573a1,1,0,0,0-1-1H93.462a1,1,0,0,0-1,1v.315h6.507a1.835,1.835,0,0,1,1.831,1.783H101.9A1.155,1.155,0,0,1,102.319,12.75Z" transform="translate(-54.516)" fill="#212226"/>
    <path id="Path_487" data-name="Path 487" d="M389.361,269.091v5.353h.514a1,1,0,0,0,1-1v-4.427a1.158,1.158,0,0,1-.42.079Z" transform="translate(-343.076 -252.152)" fill="#212226"/>
    <path id="Path_488" data-name="Path 488" d="M391.707,153.668l-1.091-.955a.233.233,0,0,0-.153-.057h-1.1v2.43h1.1a.232.232,0,0,0,.157-.061l1.095-1.012a.232.232,0,0,0,0-.344Z" transform="translate(-343.076 -139.066)" fill="#212226"/>
    <path id="Path_489" data-name="Path 489" d="M44.448,89.232H37.282a.917.917,0,0,0-.917.917v9.777a.917.917,0,0,0,.917.917h7.167a.917.917,0,0,0,.917-.917V90.149A.917.917,0,0,0,44.448,89.232Zm-1.8,7.027H39.059a.46.46,0,0,1,0-.919h3.588a.46.46,0,0,1,0,.919Zm.978-2.444H38.082a.46.46,0,0,1,0-.92h5.543a.46.46,0,0,1,0,.92Z" transform="translate(0 -77.424)" fill="#212226"/>
  </g>
</svg>
