<svg xmlns="http://www.w3.org/2000/svg" viewBox="0 0 12 11" width="12" height="11">
	<defs>
		<clipPath clipPathUnits="userSpaceOnUse" id="cp1">
			<path d="M-365 -94L1555 -94L1555 986L-365 986Z" />
		</clipPath>
	</defs>
	<style>
		tspan { white-space:pre }
		.shp0 { fill: #ffffff } 
	</style>
	<g id="Страница Баннеры" clip-path="url(#cp1)">
		<g id="star">
			<g id="Сгруппировать 492">
				<path id="Контур 467" class="shp0" d="M11.15 4.8C11.12 4.69 11.02 4.6 10.91 4.59L7.66 4.12L6.2 1.17C6.15 1.07 6.04 1 5.93 1C5.81 1 5.7 1.07 5.65 1.17L4.2 4.12L0.95 4.59C0.83 4.6 0.74 4.69 0.7 4.8C0.66 4.91 0.69 5.03 0.78 5.11L3.13 7.4L2.57 10.64C2.55 10.76 2.6 10.87 2.7 10.94C2.75 10.98 2.81 11 2.88 11C2.93 11 2.97 10.99 3.02 10.96L5.93 9.44L8.83 10.96C8.94 11.02 9.06 11.01 9.16 10.94C9.25 10.87 9.3 10.76 9.28 10.64L8.72 7.4L11.08 5.11C11.16 5.03 11.19 4.91 11.15 4.8Z" />
			</g>
		</g>
	</g>
</svg>